<?xml version="1.0" encoding="utf-8"?>
<!-- Generator: Adobe Illustrator 24.2.1, SVG Export Plug-In . SVG Version: 6.00 Build 0)  -->
<svg version="1.1" id="Light" xmlns="http://www.w3.org/2000/svg" xmlns:xlink="http://www.w3.org/1999/xlink" x="0px" y="0px"
	 viewBox="0 0 24 24" style="enable-background:new 0 0 24 24;" xml:space="preserve">
<style type="text/css">
	.st0{fill:#FFFFFF;}
</style>
<g>
	<path class="st0" d="M5.6,24c-0.1,0-0.3-0.1-0.4-0.2c-0.2-0.2-0.2-0.5,0-0.7L17.9,12L5.3,0.9c-0.2-0.2-0.2-0.5,0-0.7
		C5.4,0.1,5.5,0,5.6,0C5.8,0,5.9,0,6,0.1l12.6,11.1c0,0,0.1,0.1,0.1,0.1c0.4,0.4,0.3,1.1-0.1,1.4L6,23.9C5.9,24,5.8,24,5.6,24z"/>
</g>
</svg>
